<?xml version="1.0" encoding="UTF-8" standalone="no"?>
<!-- Created with Inkscape (http://www.inkscape.org/) -->

<svg
   version="1.1"
   id="svg2553"
   xml:space="preserve"
   width="682.66669"
   height="682.66669"
   viewBox="0 0 682.66669 682.66669"
   xmlns="http://www.w3.org/2000/svg"
   xmlns:svg="http://www.w3.org/2000/svg"><defs
     id="defs2557"><clipPath
       clipPathUnits="userSpaceOnUse"
       id="clipPath2567"><path
         d="M 0,512 H 512 V 0 H 0 Z"
         id="path2565" /></clipPath></defs><g
     id="g2559"
     transform="matrix(1.3333333,0,0,-1.3333333,0,682.66667)"><g
       id="g2561"><g
         id="g2563"
         clip-path="url(#clipPath2567)"><g
           id="g2569"
           transform="translate(236,468.5)"><path
             d="m 0,0 c 0,-19.882 -16.118,-36 -36,-36 -19.882,0 -36,16.118 -36,36 0,19.882 16.118,36 36,36 C -16.118,36 0,19.882 0,0 Z"
             style="fill:none;stroke:#000000;stroke-width:15;stroke-linecap:round;stroke-linejoin:round;stroke-miterlimit:10;stroke-dasharray:none;stroke-opacity:1"
             id="path2571" /></g><g
           id="g2573"
           transform="translate(252.7905,406.6348)"><path
             d="m 0,0 c 2.068,-4.968 3.209,-10.417 3.209,-16.135 v -34 c 0,-13.25 -10.75,-24 -24,-24 H -78.98 v 15.88 c 0,18.96 -12.561,34.97 -29.811,40.2 v 1.92 c 0,4.91 0.84,9.62 2.4,14 1.36,3.87 3.27,7.481 5.65,10.731 7.631,10.469 20,17.269 33.95,17.269 h 28 c 5.8,0 11.326,-1.175 16.351,-3.3"
             style="fill:none;stroke:#000000;stroke-width:15;stroke-linecap:round;stroke-linejoin:round;stroke-miterlimit:10;stroke-dasharray:none;stroke-opacity:1"
             id="path2575" /></g><g
           id="g2577"
           transform="translate(153.8081,426.3809)"><path
             d="m 0,0 c 0,-19.882 -16.118,-36 -36,-36 -19.882,0 -36,16.118 -36,36 0,19.883 16.118,36 36,36 C -16.118,36 0,19.883 0,0 Z"
             style="fill:none;stroke:#000000;stroke-width:15;stroke-linecap:round;stroke-linejoin:round;stroke-miterlimit:10;stroke-dasharray:none;stroke-opacity:1"
             id="path2579" /></g><g
           id="g2581"
           transform="translate(116.7002,290.3799)"><path
             d="m 0,0 h 33.11 c 13.25,0 24,10.75 24,24 V 42.12 58 c 0,18.96 -12.56,34.97 -29.81,40.2 -3.86,1.17 -7.95,1.8 -12.19,1.8 h -14 -14 c -8.03,0 -15.53,-2.25 -21.91,-6.16"
             style="fill:none;stroke:#000000;stroke-width:15;stroke-linecap:round;stroke-linejoin:round;stroke-miterlimit:10;stroke-dasharray:none;stroke-opacity:1"
             id="path2583" /></g><g
           id="g2585"
           transform="translate(61.8101,317.2695)"><path
             d="M 0,0 V 0.04"
             style="fill:none;stroke:#000000;stroke-width:15;stroke-linecap:round;stroke-linejoin:round;stroke-miterlimit:10;stroke-dasharray:none;stroke-opacity:1"
             id="path2587" /></g><g
           id="g2589"
           transform="translate(373.5,37.5)"><path
             d="m 0,0 c -55.691,0 -101,45.309 -101,101 0,55.691 45.309,101 101,101 55.691,0 101,-45.309 101,-101 C 101,45.309 55.691,0 0,0 Z"
             style="fill:none;stroke:#000000;stroke-width:15;stroke-linecap:round;stroke-linejoin:round;stroke-miterlimit:10;stroke-dasharray:none;stroke-opacity:1"
             id="path2591" /></g><g
           id="g2593"
           transform="translate(479.6533,215.2783)"><path
             d="m 0,0 c 15.631,-21.573 24.847,-48.1 24.847,-76.778 0,-72.35 -58.651,-131 -131,-131 -72.349,0 -131,58.65 -131,131 0,72.349 58.651,131 131,131 32.154,0 61.603,-11.585 84.4,-30.809"
             style="fill:none;stroke:#000000;stroke-width:15;stroke-linecap:round;stroke-linejoin:round;stroke-miterlimit:10;stroke-dasharray:none;stroke-opacity:1"
             id="path2595" /></g><g
           id="g2597"
           transform="translate(354.7163,117.8682)"><path
             d="m 0,0 v -3.632 c 0,-9.349 7.65,-17 17,-17 h 7.264 c 9.35,0 17,7.651 17,17 v 14.019 c 0,5.658 -4.587,10.245 -10.246,10.245 H 17 c -9.389,0 -17,7.611 -17,17 v 7.264 c 0,9.388 7.611,17 17,17 h 7.264 c 9.388,0 17,-7.612 17,-17 v -3.632"
             style="fill:none;stroke:#000000;stroke-width:15;stroke-linecap:round;stroke-linejoin:round;stroke-miterlimit:10;stroke-dasharray:none;stroke-opacity:1"
             id="path2599" /></g><g
           id="g2601"
           transform="translate(375.3481,197.4434)"><path
             d="M 0,0 V -17.68"
             style="fill:none;stroke:#000000;stroke-width:15;stroke-linecap:round;stroke-linejoin:round;stroke-miterlimit:10;stroke-dasharray:none;stroke-opacity:1"
             id="path2603" /></g><g
           id="g2605"
           transform="translate(375.3481,97.2363)"><path
             d="M 0,0 V -17.68"
             style="fill:none;stroke:#000000;stroke-width:15;stroke-linecap:round;stroke-linejoin:round;stroke-miterlimit:10;stroke-dasharray:none;stroke-opacity:1"
             id="path2607" /></g><g
           id="g2609"
           transform="translate(99.5,353.2715)"><path
             d="m 0,0 c 0,-19.882 -16.118,-36 -36,-36 -19.882,0 -36,16.118 -36,36 0,19.882 16.118,36 36,36 C -16.118,36 0,19.882 0,0 Z"
             style="fill:none;stroke:#000000;stroke-width:15;stroke-linecap:round;stroke-linejoin:round;stroke-miterlimit:10;stroke-dasharray:none;stroke-opacity:1"
             id="path2611" /></g><g
           id="g2613"
           transform="translate(51.6826,217.2715)"><path
             d="m 0,0 h -20.183 c -13.255,0 -24,10.745 -24,24 v 34 c 0,23.196 18.805,42 42,42 h 28 c 23.196,0 42,-18.804 42,-42 V 24 c 0,-13.255 -10.745,-24 -24,-24 H 32.372"
             style="fill:none;stroke:#000000;stroke-width:15;stroke-linecap:round;stroke-linejoin:round;stroke-miterlimit:10;stroke-dasharray:none;stroke-opacity:1"
             id="path2615" /></g><g
           id="g2617"
           transform="translate(330.8936,432.1807)"><path
             d="M 0,0 C 49.955,0 90.451,-40.496 90.451,-90.45"
             style="fill:none;stroke:#000000;stroke-width:15;stroke-linecap:round;stroke-linejoin:round;stroke-miterlimit:10;stroke-dasharray:none;stroke-opacity:1"
             id="path2619" /></g><g
           id="g2621"
           transform="translate(402.8325,351.4932)"><path
             d="M 0,0 18.512,-13.674 32.69,6.14"
             style="fill:none;stroke:#000000;stroke-width:15;stroke-linecap:round;stroke-linejoin:round;stroke-miterlimit:10;stroke-dasharray:none;stroke-opacity:1"
             id="path2623" /></g><g
           id="g2625"
           transform="translate(70.627,167.457)"><path
             d="M 0,0 C 0,-49.954 40.496,-90.45 90.451,-90.45"
             style="fill:none;stroke:#000000;stroke-width:15;stroke-linecap:round;stroke-linejoin:round;stroke-miterlimit:10;stroke-dasharray:none;stroke-opacity:1"
             id="path2627" /></g><g
           id="g2629"
           transform="translate(151.3145,95.5186)"><path
             d="M 0,0 13.674,-18.512 -6.14,-32.69"
             style="fill:none;stroke:#000000;stroke-width:15;stroke-linecap:round;stroke-linejoin:round;stroke-miterlimit:10;stroke-dasharray:none;stroke-opacity:1"
             id="path2631" /></g></g></g></g></svg>
