<svg id="Camada_1" data-name="Camada 1" xmlns="http://www.w3.org/2000/svg" xmlns:xlink="http://www.w3.org/1999/xlink" viewBox="0 0 17.94 24"><defs><style>.cls-1{fill:url(#linear-gradient);}.cls-2{fill:url(#linear-gradient-2);}.cls-3{fill:url(#linear-gradient-3);}.cls-4{fill:none;clip-rule:evenodd;}.cls-5{fill:#0d0e22;}.cls-11,.cls-12,.cls-13,.cls-5,.cls-6,.cls-7{fill-rule:evenodd;}.cls-6{fill:#cdcccb;}.cls-7{fill:#fff;}.cls-8{clip-path:url(#clip-path);}.cls-9{fill:url(#linear-gradient-4);}.cls-10{mask:url(#mask);}.cls-11{fill:#cdcdcd;}.cls-12{fill:#6bdddd;}.cls-13{fill:#266d6b;}.cls-14{clip-path:url(#clip-path-2);}.cls-15{mask:url(#mask-2);}.cls-16{fill:url(#linear-gradient-5);}.cls-17{mask:url(#mask-3);}.cls-18{fill:#2a2a2a;}.cls-19{fill:#04bfbf;}</style><linearGradient id="linear-gradient" x1="-65.23" y1="357.74" x2="-65.89" y2="354.87" gradientTransform="translate(77.83 -346.33)" gradientUnits="userSpaceOnUse"><stop offset="0" stop-color="#fff"/><stop offset="1" stop-color="#0a0a0a"/></linearGradient><linearGradient id="linear-gradient-2" x1="-76.38" y1="355.55" x2="-76.17" y2="356.54" gradientTransform="translate(86.27 -346.34)" gradientUnits="userSpaceOnUse"><stop offset="0" stop-color="#0a0a0a"/><stop offset="1" stop-color="#fff"/></linearGradient><linearGradient id="linear-gradient-3" x1="-88.46" y1="359.1" x2="-88.78" y2="358.12" gradientTransform="translate(103.01 -350.04)" gradientUnits="userSpaceOnUse"><stop offset="0" stop-color="#fff"/><stop offset="1"/></linearGradient><clipPath id="clip-path" transform="translate(-2.66)"><path class="cls-4" d="M11.53.41a6,6,0,1,1-6,6,6,6,0,0,1,6-6"/></clipPath><linearGradient id="linear-gradient-4" x1="11.4" y1="3.15" x2="12.99" y2="1.13" gradientUnits="userSpaceOnUse"><stop offset="0" stop-color="#cdcdcd"/><stop offset="1" stop-color="#fff"/></linearGradient><mask id="mask" x="4.11" y="5.63" width="9.99" height="4.25" maskUnits="userSpaceOnUse"><g transform="translate(-2.66)"><rect class="cls-1" x="6.77" y="5.63" width="9.99" height="4.25"/></g></mask><clipPath id="clip-path-2" transform="translate(-2.66)"><path class="cls-4" d="M9.89,8.6a.87.87,0,0,1,.81,1.19,9.48,9.48,0,0,1-1.58.09A.8.8,0,0,1,9,9.47a.87.87,0,0,1,.87-.87"/></clipPath><mask id="mask-2" x="6.36" y="8.6" width="1.74" height="1.29" maskUnits="userSpaceOnUse"><g transform="translate(-2.66)"><rect class="cls-2" x="9.02" y="8.6" width="1.74" height="1.28"/></g></mask><linearGradient id="linear-gradient-5" x1="7.22" y1="9.07" x2="7.24" y2="9.94" gradientUnits="userSpaceOnUse"><stop offset="0" stop-color="#f37a20"/><stop offset="1" stop-color="#fff"/></linearGradient><mask id="mask-3" x="10.81" y="7.59" width="1.62" height="1.31" maskUnits="userSpaceOnUse"><g transform="translate(-2.66)"><rect class="cls-3" x="13.47" y="7.59" width="1.62" height="1.31"/></g></mask></defs><path class="cls-5" d="M11.26,24l.3-.29c.76-.71,1.52-2,1-3l-.08-.16.15-.1a5.23,5.23,0,0,0,1.67-2.21c.1-.21.18-.42.26-.64l0-.09.56-2.13c.86-.29-.18-.65.09-1.59.07-.27,1.63,1.37,1.57,1.1l0,0c.51-1-.07-1.66-.88-2.39-.82.23-.17-1-.38-1.09a6.38,6.38,0,0,0,2.13-3.38s0-.05,0-.08A3.47,3.47,0,0,0,19.2,5.2a3,3,0,0,0-2.8-2.92l-.11-.12a6.36,6.36,0,0,0-11,3,.59.59,0,0,1,0,.13A2.77,2.77,0,0,0,3.69,7.76a2.84,2.84,0,0,0,3,2.74l.06.06.13.15.11.12L6.27,12l-.13,0a2,2,0,0,0-1.75,1,5.4,5.4,0,0,0-.72,2.29l0,.1-.1.06c-.38.22-1,.65-.88,1.16l0,.12.07.08a.73.73,0,0,0,.34.2l.21.06-.07.21a1,1,0,0,0,0,1l0,.07.07,0a.71.71,0,0,0,.62,0,1.74,1.74,0,0,0,.74-.63c0-.07.09-.13.13-.19l.18.15a.8.8,0,0,0,.86.23c.45-.21.46-.83.35-1.25a.56.56,0,0,0,0-.12l.1-.09a6.58,6.58,0,0,0,1-1.09l.23-.32L7.57,15c0,.12,0,.29.09.49a12.18,12.18,0,0,0,.81,2.72,5.42,5.42,0,0,0,1.58,2.14l.14.11-.07.15a1.87,1.87,0,0,0-.15.84,3.77,3.77,0,0,0,1,2.24l.27.32" transform="translate(-2.66)"/><path class="cls-5" d="M15.73,10.8l-.11.12.72,1.2h.13a1.92,1.92,0,0,1,1.75,1A5.41,5.41,0,0,1,19,15.38v.1l.1.06c.39.22,1,.65.88,1.16l0,.12-.07.08a.66.66,0,0,1-.34.2l-.21.06.07.21a1.07,1.07,0,0,1,0,1l0,.06-.07.05a.77.77,0,0,1-.63,0,1.73,1.73,0,0,1-.74-.63l-.13-.19-.18.15a.8.8,0,0,1-.86.23c-.45-.21-.46-.83-.35-1.24,0-.05,0-.09,0-.13l-.1-.09a6.2,6.2,0,0,1-1-1.09l-.29-.4" transform="translate(-2.66)"/><path class="cls-6" d="M6.45,10.14A2.43,2.43,0,0,1,4.09,7.77a2.35,2.35,0,0,1,.64-1.6,4,4,0,0,1,.49-.39,6,6,0,0,0,1.23,4.36" transform="translate(-2.66)"/><path class="cls-7" d="M5.54,9.39a2.44,2.44,0,0,1-.43-.28,1.77,1.77,0,0,1-.27-2.34,4.42,4.42,0,0,0,.7,2.62" transform="translate(-2.66)"/><g class="cls-8"><rect class="cls-9" x="2.9" y="0.41" width="11.93" height="11.93"/></g><path class="cls-7" d="M11.53,12.34A6,6,0,0,1,11,.44c1.38,1,1.72,4.58,1.32,6C12,7.68,10.9,7,9.92,6.74c-2.27-.46-4.14.71-3.36,2.64.58,1.41,2.51,2.15,4.27,2.22A7,7,0,0,0,14,11a5.15,5.15,0,0,1-2.51.87c0,.13,0,.27,0,.46" transform="translate(-2.66)"/><path class="cls-6" d="M16.62,2.71a2.56,2.56,0,0,1,2.19,2.51,2.49,2.49,0,0,1-.61,1.63,3.49,3.49,0,0,1-.44.44,6,6,0,0,0-1.14-4.58" transform="translate(-2.66)"/><path class="cls-7" d="M17.42,3.36a2.2,2.2,0,0,1,.77,2.82,5,5,0,0,0-.77-2.82" transform="translate(-2.66)"/><path class="cls-5" d="M10.1,7.35C9,7.11,7.49,7,6.89,8.07a1.77,1.77,0,0,0,0,1.31C7.77,11.5,11.23,11.48,13,11a6.29,6.29,0,0,0,3.38-2.4c1.41-2.42-.72-3.85-2.64-2.25C13,7,12.44,7.65,12,7.73s-.92-.16-1.92-.38" transform="translate(-2.66)"/><g class="cls-10"><path class="cls-7" d="M10.1,7.35C9,7.11,7.49,7,6.89,8.07a1.77,1.77,0,0,0,0,1.31l0,.09a8.83,8.83,0,0,0,6.74-.62,10,10,0,0,0,3.07-2.32c-.36-1-1.73-1.28-3-.22C13,7,12.44,7.65,12,7.73s-.92-.16-1.92-.38" transform="translate(-2.66)"/></g><path class="cls-11" d="M4,16.31a.84.84,0,0,0,.46.67,1,1,0,0,0,.82-.15,2,2,0,0,1-.75-.2A2.49,2.49,0,0,1,4,16.31m0-.38a1,1,0,0,0,0,.17v0a2,2,0,0,0,.62.41,2.14,2.14,0,0,0,.81.2,1.37,1.37,0,0,0,.21-.15,2.11,2.11,0,0,1-1-.2A2.05,2.05,0,0,1,4,15.93ZM5.8,13.6A24.19,24.19,0,0,0,4.88,16a15.8,15.8,0,0,1,1.21-2.21,1.56,1.56,0,0,0,1.17-.14c-.81.09-1.61-.16-1.7-.91A.94.94,0,0,0,5.8,13.6Zm.38-1.17a1.25,1.25,0,0,0-.7.1A4.67,4.67,0,0,0,4,15.78a2.4,2.4,0,0,0,.74.54,2.2,2.2,0,0,0,1,.2,8,8,0,0,0,1.66-2A1.59,1.59,0,0,0,7.22,13a.58.58,0,0,1-1,.08.59.59,0,0,1,.06-.59l0,0Zm-.3,4.35c.11.18.2.65,0,.8a.57.57,0,0,1-.7-.38A2,2,0,0,0,5.88,16.78Zm-2.79-.23c0,.14.23.21.72.07a1.44,1.44,0,0,1-.1-.78C3.49,15.88,3,16.31,3.09,16.55ZM3.6,18s.41.26,1-.76a.59.59,0,0,1-.68-.43C3.7,17,3.42,17.78,3.6,18Zm3.7-6.89.19.2c0,.35,0,.65,0,.88l-.63.88c-.08.09-.6,0-.48-.47Z" transform="translate(-2.66)"/><path class="cls-7" d="M4,16.31a.62.62,0,0,0,.5.56l.07-.22A2.46,2.46,0,0,1,4,16.31m0-.38a1,1,0,0,0,0,.17v0a1.85,1.85,0,0,0,.64.33l0-.07A2.05,2.05,0,0,1,4,15.93Zm2.21-3.5a1.25,1.25,0,0,0-.7.1A4.67,4.67,0,0,0,4,15.78c.21.21.67.3.78,0,.21-.62.49-1.35.83-2.1-.18-.11-.15-.65,0-.94a.56.56,0,0,0,.34.47.6.6,0,0,1,0-.64c-.06.49.18.68.4.74a.48.48,0,0,1-.07-.82Zm-.33,5.15a.57.57,0,0,1-.7-.38,1.89,1.89,0,0,0,.44-.1A1.36,1.36,0,0,0,5.85,17.58Zm-2.76-1a2.33,2.33,0,0,1,.54-.28.94.94,0,0,1,.08-.43C3.49,15.88,3,16.31,3.09,16.55ZM3.6,18l.46-.77a.44.44,0,0,1-.13-.42C3.7,17,3.42,17.78,3.6,18Zm3.7-6.89.19.2c-.17.19-.67,1.13-1,1.71a.39.39,0,0,1-.13-.42Z" transform="translate(-2.66)"/><path class="cls-11" d="M13.09,19.5a2.27,2.27,0,0,1-1.68.93,2.24,2.24,0,0,1-1.66-.89,5,5,0,0,0,1.75.25,4.89,4.89,0,0,0,1.59-.29m.48-.67q-.12.2-.24.36a4.86,4.86,0,0,1-1.78.37,4.62,4.62,0,0,1-2.09-.4l-.21-.32a4.6,4.6,0,0,0,2.27.48A4.69,4.69,0,0,0,13.57,18.83Zm.58-1.21a7.73,7.73,0,0,1-.42.91,4.47,4.47,0,0,1-2.16.56A4.29,4.29,0,0,1,9,18.42a13.9,13.9,0,0,1-1.24-6.11v0a5.73,5.73,0,0,0,3.31,1.18h.29c0,.67.1,1.52.17,1.83,0-.52.07-1.23.16-1.83h.13a5.72,5.72,0,0,0,3.19-1q0,.43,0,.87m-.85,4.27M15,11.7c0,.11,0,.3,0,.45a5.76,5.76,0,0,1-3.5,1,5.48,5.48,0,0,1-3.75-1.25c0-.15,0-.31,0-.42A6,6,0,0,0,15,11.7Z" transform="translate(-2.66)"/><path class="cls-7" d="M11.11,20.2a1.91,1.91,0,0,1-1.36-.66,5,5,0,0,0,1.75.25s.17.45-.39.41M9.39,19.06l-.14-.22a4.09,4.09,0,0,0,1.15.4,5.79,5.79,0,0,0,1.12.08A4.54,4.54,0,0,1,9.39,19.06Zm1.35,0A3.77,3.77,0,0,1,9,18.42a13.9,13.9,0,0,1-1.24-6.11,5.73,5.73,0,0,0,2.91,1.61m-2.91-2c0-.15,0-.31,0-.42a5.94,5.94,0,0,0,3.74,1.31A5.4,5.4,0,0,1,7.78,11.94Z" transform="translate(-2.66)"/><path class="cls-12" d="M11.3,23.44s1.54-1.47.9-2.64c0,0-1.14.27-1.62-.11l0,0c-.52.93.14,2.07.75,2.78" transform="translate(-2.66)"/><path class="cls-13" d="M11,22.72a2.32,2.32,0,0,1-.14-1.18,5.08,5.08,0,0,0,.42,1.58,5.63,5.63,0,0,0,.44-1.65,2.86,2.86,0,0,1-.09,1.15,1.91,1.91,0,0,0,.53-1.82,2.64,2.64,0,0,1-1.58-.08.32.32,0,0,1-.07-.06A2.19,2.19,0,0,0,11,22.72" transform="translate(-2.66)"/><path class="cls-13" d="M9.89,8.6A.87.87,0,1,1,9,9.47a.87.87,0,0,1,.87-.87" transform="translate(-2.66)"/><g class="cls-14"><g class="cls-15"><rect class="cls-16" x="6.36" y="8.6" width="1.74" height="1.29"/></g></g><path class="cls-13" d="M14.34,7.59a.87.87,0,1,1-.87.87.87.87,0,0,1,.87-.87" transform="translate(-2.66)"/><g class="cls-17"><path class="cls-7" d="M14.34,7.59a.86.86,0,0,1,.75.43,11.23,11.23,0,0,1-1.4.83l-.1.05a.93.93,0,0,1-.12-.44.87.87,0,0,1,.87-.87" transform="translate(-2.66)"/></g><path class="cls-7" d="M13.57,13.52a4.82,4.82,0,0,0-1.51,1.38V14a6.29,6.29,0,0,0,1.5-.52" transform="translate(-2.66)"/><text x="-2.66"/><path class="cls-11" d="M18.71,16.37a2.38,2.38,0,0,1-1.27.53,1,1,0,0,0,.81.15.83.83,0,0,0,.46-.68m-.64.1a2.15,2.15,0,0,1-1,.2l.22.15a2.26,2.26,0,0,0,1.42-.61V16A2.28,2.28,0,0,1,18.07,16.47Zm-.91-3.72c-.1.76-.9,1-1.71.92a1.58,1.58,0,0,0,1.18.13A17.25,17.25,0,0,1,17.83,16a24.81,24.81,0,0,0-.92-2.34A.94.94,0,0,0,17.16,12.75Zm-.66-.24h-.05a.61.61,0,0,1,.07.6.59.59,0,0,1-1-.08,1.57,1.57,0,0,0-.18,1.5,8,8,0,0,0,1.66,2,2.08,2.08,0,0,0,1-.2,2,2,0,0,0,.74-.54,4.75,4.75,0,0,0-1.5-3.25,1.32,1.32,0,0,0-.7-.09Zm1.06,4.75a.56.56,0,0,1-.69.39c-.24-.15-.14-.62,0-.81A2,2,0,0,0,17.56,17.26ZM19,15.91a1.32,1.32,0,0,1-.1.77c.49.14.7.08.73-.06S19.23,16,19,15.91Zm-.21,1a.6.6,0,0,1-.69.43c.6,1,1,.76,1,.76C19.29,17.84,19,17.1,18.79,16.91Zm-2.43-4.22c.12.46-.39.57-.47.47l-.64-.87c0-.23,0-.53,0-.88l.18-.21Z" transform="translate(-2.66)"/><path class="cls-7" d="M18.71,16.37a2.18,2.18,0,0,1-.57.35l.07.22a.63.63,0,0,0,.5-.57m-.64.1,0,.07a1.85,1.85,0,0,0,.64-.33V16A2.28,2.28,0,0,1,18.07,16.47Zm-1.57-4a.49.49,0,0,1-.07.82c.21-.06.46-.25.39-.74a.58.58,0,0,1,0,.63.56.56,0,0,0,.35-.47c.13.3.15.84,0,.95.33.75.61,1.48.82,2.1.11.34.58.25.78,0a4.75,4.75,0,0,0-1.5-3.25,1.32,1.32,0,0,0-.7-.09Zm.63,4.65a1.43,1.43,0,0,0,.43.1.56.56,0,0,1-.69.39A1.86,1.86,0,0,0,17.13,17.16ZM19,15.91a.83.83,0,0,1,.08.43,1.88,1.88,0,0,1,.55.28C19.68,16.37,19.23,16,19,15.91Zm-.21,1a.45.45,0,0,1-.14.41l.46.78C19.29,17.84,19,17.1,18.79,16.91Zm-2.43-4.22a.37.37,0,0,1-.13.43c-.34-.58-.84-1.52-1-1.71l.18-.21Z" transform="translate(-2.66)"/><path class="cls-18" d="M10.14,14.82,10,14.71s0,0,0-.05a0,0,0,0,0,0,0,.19.19,0,0,0,0-.18.15.15,0,0,0-.16-.09H9.67a2,2,0,0,0-.53.17,1.08,1.08,0,0,0-.36.24" transform="translate(-2.66)"/><path class="cls-19" d="M10.07,16.23l0-.05,0,0s0,0,0-.06v0h0v0L9.94,16l0-.05h0a.59.59,0,0,1-.19.13.69.69,0,0,1-.24.05.6.6,0,0,1-.24-.05A.5.5,0,0,1,9,15.94a.63.63,0,0,1-.13-.2.75.75,0,0,1,0-.26.69.69,0,0,1,0-.25.25.25,0,0,1,0-.07.65.65,0,0,0,0-.13h0l0,0s0,0,0-.05l-.06,0a.09.09,0,0,1,0-.05h0a.88.88,0,0,0-.17.28,1.11,1.11,0,0,0-.07.37,1.17,1.17,0,0,0,.07.38,1.1,1.1,0,0,0,.2.31,1,1,0,0,0,.31.21.91.91,0,0,0,.41.08.87.87,0,0,0,.4-.08.65.65,0,0,0,.23-.13Z" transform="translate(-2.66)"/><path class="cls-18" d="M10.38,15.11a.79.79,0,0,0-.2-.31.77.77,0,0,0-.31-.21,1,1,0,0,0-.4-.08,1.07,1.07,0,0,0-.41.08,1,1,0,0,0-.3.2h0l0,0,0,0h0l.05,0h0A.22.22,0,0,1,9,15H9a.08.08,0,0,0,0,.05L9,15a.5.5,0,0,1,.19-.13.6.6,0,0,1,.24-.05.69.69,0,0,1,.24.05A.59.59,0,0,1,9.9,15a.51.51,0,0,1,.12.2.7.7,0,0,1,.05.25.75.75,0,0,1-.05.26,1.19,1.19,0,0,1-.08.16A.1.1,0,0,1,10,16v0h0a.54.54,0,0,1,.07.13l.06.09,0,0a.79.79,0,0,0,.2-.31,1,1,0,0,0,.07-.38A.9.9,0,0,0,10.38,15.11Z" transform="translate(-2.66)"/></svg>