<?xml version="1.0" encoding="UTF-8"?>
<svg xmlns="http://www.w3.org/2000/svg" id="icons" viewBox="0 0 60 60" width="512" height="512"><path d="M30,7A16,16,0,1,0,46,23,16.019,16.019,0,0,0,30,7Zm0,30A14,14,0,1,1,44,23,14.015,14.015,0,0,1,30,37Z"/><path d="M33.879,16.879,26,24.761a3.071,3.071,0,0,0-4.118.118,3,3,0,0,0,0,4.242l2,2a3.029,3.029,0,0,0,4.243,0l10-10a3,3,0,0,0-4.242-4.242Zm2.828,2.828-10,10a1.021,1.021,0,0,1-1.414,0l-2-2a1,1,0,0,1,1.414-1.414l.586.586a1,1,0,0,0,1.414,0l8.586-8.586a1,1,0,0,1,1.414,1.414Z"/><path d="M51.48,19.128,49.405,18.3a19.751,19.751,0,0,0-2.361-5.693l.878-2.056A2.243,2.243,0,0,0,47.6,8.2c-.365-.439-.784-.9-1.341-1.472-.552-.538-1.014-.957-1.442-1.312a2.254,2.254,0,0,0-2.362-.337l-2.057.879A19.751,19.751,0,0,0,34.7,3.6l-.83-2.078A2.291,2.291,0,0,0,31.986.089a22.2,22.2,0,0,0-3.961,0,2.3,2.3,0,0,0-1.9,1.432L25.3,3.6a19.762,19.762,0,0,0-5.693,2.361L17.55,5.078A2.241,2.241,0,0,0,15.2,5.4c-.441.365-.9.785-1.472,1.34-.538.552-.958,1.014-1.311,1.442a2.248,2.248,0,0,0-.339,2.363l.879,2.057A19.809,19.809,0,0,0,10.594,18.3l-2.078.831a2.288,2.288,0,0,0-1.427,1.885,22.182,22.182,0,0,0,0,3.959,2.294,2.294,0,0,0,1.432,1.9l2.074.829a19.809,19.809,0,0,0,2.362,5.693l-.878,2.056A2.243,2.243,0,0,0,12.4,37.8c.365.441.785.9,1.341,1.472.551.538,1.013.958,1.441,1.312.035.03.078.045.115.073L10.249,52.269a3.082,3.082,0,0,0,2.841,4.279h4.29a.411.411,0,0,1,.294.119L20.113,59.1a3.089,3.089,0,0,0,5.008-.935L30,47.417l4.874,10.73a3.079,3.079,0,0,0,2.254,1.8A3.026,3.026,0,0,0,37.7,60a3.087,3.087,0,0,0,2.182-.9l2.443-2.433a.413.413,0,0,1,.292-.116h4.29a3.082,3.082,0,0,0,2.837-4.289L44.693,40.664c.034-.026.076-.04.109-.068.439-.365.9-.784,1.472-1.341.538-.552.957-1.014,1.312-1.442a2.248,2.248,0,0,0,.337-2.362l-.879-2.057A19.751,19.751,0,0,0,49.405,27.7l2.078-.83a2.291,2.291,0,0,0,1.428-1.885A19.4,19.4,0,0,0,53,23a19.275,19.275,0,0,0-.089-1.98A2.3,2.3,0,0,0,51.48,19.128ZM23.293,57.347a1.088,1.088,0,0,1-1.768.332l-2.437-2.427a2.425,2.425,0,0,0-1.708-.7H13.09a1.068,1.068,0,0,1-.9-.485,1.054,1.054,0,0,1-.1-1.005L17.342,40.98c.069-.022.139-.028.207-.057l2.057-.879A19.762,19.762,0,0,0,25.3,42.405l.83,2.079a2.293,2.293,0,0,0,1.885,1.427c.147.015.306.022.459.033Zm24.616-4.3a1.081,1.081,0,0,1-1,1.5H42.62a2.422,2.422,0,0,0-1.7.7l-2.442,2.432a1.09,1.09,0,0,1-1.773-.347l-5.173-11.39c.149-.011.3-.017.448-.032a2.3,2.3,0,0,0,1.9-1.432l.829-2.075a19.751,19.751,0,0,0,5.693-2.361l2.056.878c.064.028.132.033.2.055ZM50.92,24.8a.289.289,0,0,1-.182.218l-2.562,1.024a1.006,1.006,0,0,0-.608.721,17.818,17.818,0,0,1-2.488,6A1,1,0,0,0,45,33.7l1.085,2.541a.277.277,0,0,1-.029.289c-.328.4-.714.822-1.2,1.315-.512.5-.936.886-1.345,1.223a.278.278,0,0,1-.279.019L40.7,38a1,1,0,0,0-.936.081,17.818,17.818,0,0,1-6,2.488,1.006,1.006,0,0,0-.721.608l-1.023,2.559a.292.292,0,0,1-.231.186A17.663,17.663,0,0,1,30.006,44h-.012a17.765,17.765,0,0,1-1.791-.08.29.29,0,0,1-.218-.182l-1.024-2.562a1,1,0,0,0-.72-.608,17.794,17.794,0,0,1-6-2.488,1,1,0,0,0-.544-.161A.994.994,0,0,0,19.3,38l-2.541,1.085a.269.269,0,0,1-.288-.029c-.4-.329-.822-.715-1.315-1.2-.5-.511-.884-.934-1.224-1.345a.275.275,0,0,1-.018-.278L15,33.7a1,1,0,0,0-.081-.936,17.82,17.82,0,0,1-2.489-6,1,1,0,0,0-.607-.721L9.265,25.017a.3.3,0,0,1-.186-.231C9.026,24.255,9,23.671,9,23s.026-1.255.08-1.8a.291.291,0,0,1,.182-.217l2.562-1.024a1,1,0,0,0,.607-.721,17.82,17.82,0,0,1,2.489-6A1,1,0,0,0,15,12.3L13.917,9.763a.277.277,0,0,1,.029-.29c.329-.4.714-.821,1.2-1.315.511-.5.935-.884,1.346-1.223a.269.269,0,0,1,.277-.018L19.3,8a1,1,0,0,0,.937-.081,17.794,17.794,0,0,1,6-2.488,1,1,0,0,0,.72-.608l1.022-2.558a.294.294,0,0,1,.232-.187,20.214,20.214,0,0,1,3.582,0,.289.289,0,0,1,.218.182l1.024,2.562a1.006,1.006,0,0,0,.721.608,17.818,17.818,0,0,1,6,2.488A1,1,0,0,0,40.7,8l2.541-1.085a.277.277,0,0,1,.289.029c.4.328.822.714,1.315,1.2.5.512.886.936,1.223,1.345a.273.273,0,0,1,.019.279L45,12.3a1,1,0,0,0,.081.936,17.818,17.818,0,0,1,2.488,6,1.006,1.006,0,0,0,.608.721l2.559,1.023a.29.29,0,0,1,.185.219v.012A17.483,17.483,0,0,1,51,23,17.585,17.585,0,0,1,50.92,24.8Z"/></svg>
