<svg id="Capa_1" enable-background="new 0 0 511.672 511.672" height="512" viewBox="0 0 511.672 511.672" width="512" xmlns="http://www.w3.org/2000/svg"><g><path d="m457.191 36.371h-402.711c-30.041 0-54.48 24.44-54.48 54.481v329.968c0 30.041 24.439 54.48 54.48 54.48h54.381c4.143 0 7.5-3.357 7.5-7.5s-3.357-7.5-7.5-7.5h-54.381c-21.77 0-39.48-17.711-39.48-39.48v-308.076h369.021c4.143 0 7.5-3.357 7.5-7.5s-3.357-7.5-7.5-7.5h-369.021v-6.893c0-21.77 17.711-39.48 39.48-39.48h402.711c21.77 0 39.48 17.711 39.48 39.48v6.893h-80.688c-4.143 0-7.5 3.357-7.5 7.5s3.357 7.5 7.5 7.5h80.688v308.076c0 21.77-17.711 39.48-39.48 39.48h-316.368c-4.143 0-7.5 3.357-7.5 7.5s3.357 7.5 7.5 7.5h316.368c30.041 0 54.48-24.439 54.48-54.48v-329.968c.001-30.041-24.439-54.481-54.48-54.481z"/><path d="m391.876 333.116c.229 6.822 5.751 12.167 12.571 12.167h41.799c3.427 0 6.632-1.353 9.024-3.81 2.39-2.452 3.655-5.687 3.565-9.104-1.391-53.233-23.177-103.061-61.345-140.301-38.237-37.309-88.723-57.855-142.155-57.855s-103.918 20.547-142.155 57.855c-38.168 37.24-59.954 87.067-61.345 140.3-.09 3.419 1.176 6.653 3.565 9.105 2.393 2.457 5.598 3.81 9.024 3.81h41.799c6.82 0 12.343-5.345 12.571-12.167 1.139-33.957 14.829-66.104 38.548-90.517 2.887-2.971 2.818-7.72-.152-10.605-2.973-2.887-7.722-2.816-10.605.152-6.214 6.396-11.801 13.275-16.738 20.541l-30.187-21.382c6.976-10.161 14.989-19.712 23.997-28.501 18.388-17.941 39.838-31.685 63.136-40.767l11.351 35.315c-8.85 3.607-17.386 8.048-25.483 13.325-3.471 2.262-4.45 6.908-2.188 10.378 2.261 3.472 6.908 4.451 10.378 2.188 22.164-14.444 47.921-22.079 74.486-22.079 35.681 0 69.439 13.67 95.058 38.492 25.558 24.768 40.291 57.958 41.481 93.46zm-269.853-67.589c-10.752 19.805-17.005 41.882-18.123 64.756h-36.989c1.201-30.733 9.759-60.175 24.749-86.263zm284.749 64.756c-1.118-22.968-7.351-45.011-18.092-64.779l30.331-21.484c14.99 26.088 23.548 55.53 24.749 86.264h-36.988zm4.24-98.978-30.166 21.367c-5.787-8.504-12.473-16.479-20.016-23.787-14.144-13.704-30.524-24.342-48.289-31.577l11.337-35.271c23.298 9.082 44.748 22.826 63.136 40.767 9.009 8.789 17.022 18.34 23.998 28.501zm-198.713-38.933-11.323-35.227c17.424-5.224 35.697-7.933 54.359-7.933s36.935 2.709 54.359 7.933l-11.316 35.205c-13.813-4.073-28.28-6.185-43.043-6.185-14.694 0-29.167 2.108-43.036 6.207z"/><path d="m284.762 284.953-45.294 29.432c-14.012 6.136-23.831 20.129-23.831 36.38 0 21.891 17.809 39.699 39.699 39.699 21.395 0 38.881-17.014 39.662-38.222l11.327-52.42c1.217-5.631-1.061-11.382-5.803-14.652-4.745-3.271-10.928-3.356-15.76-.217zm6.471 13.684-5.703 26.396c-4.483-5.253-10.306-9.326-16.938-11.683zm-35.897 76.827c-13.619 0-24.699-11.08-24.699-24.699s11.08-24.699 24.699-24.699 24.699 11.08 24.699 24.699-11.08 24.699-24.699 24.699z"/><path d="m53.578 68.009c-4.143 0-7.5 3.357-7.5 7.5s3.357 7.5 7.5 7.5h3.15c4.143 0 7.5-3.357 7.5-7.5s-3.357-7.5-7.5-7.5z"/><path d="m90.335 68.009c-4.143 0-7.5 3.357-7.5 7.5s3.357 7.5 7.5 7.5h3.15c4.143 0 7.5-3.357 7.5-7.5s-3.357-7.5-7.5-7.5z"/><path d="m127.092 68.009c-4.143 0-7.5 3.357-7.5 7.5s3.357 7.5 7.5 7.5h3.15c4.143 0 7.5-3.357 7.5-7.5s-3.357-7.5-7.5-7.5z"/></g></svg>